<?xml version="1.0"?><svg width="640" height="480" xmlns="http://www.w3.org/2000/svg">
 <title>Radio Waves</title>
 <g>
  <path d="m449.388092,71.478867c57.637726,42.267654 89.259247,108.04892 84.626129,176.045319c-4.633118,67.996384 -44.931976,129.565598 -107.848633,164.772964" id="path4181" stroke-miterlimit="4" stroke-linecap="round" stroke-width="15.418222" stroke="#ff0000" fill-rule="nonzero" fill="none"/>
  <path d="m495.211426,42.46204c63.435547,52.424526 97.334961,128.987286 91.923889,207.612423c-5.411011,78.625122 -49.531189,150.572784 -119.638855,195.09787" id="path4190" stroke-miterlimit="4" stroke-linecap="round" stroke-width="12.5" stroke="#ff0000" fill-rule="nonzero" fill="none"/>
  <path d="m420.721161,106.314743c45.31543,33.231308 70.176575,84.949295 66.534058,138.408783c-3.642639,53.459549 -35.326019,101.865952 -84.79184,129.546371" id="path4196" marker-end="none" marker-mid="none" marker-start="none" stroke-dashoffset="0" stroke-miterlimit="4" stroke-linecap="round" stroke-width="12.5" stroke="#ff0000" fill-rule="nonzero" fill="none"/>
  <path d="m392.069214,143.347977c32.562012,23.878784 50.42627,61.041412 47.808838,99.455444c-2.617462,38.414047 -25.383942,73.197067 -60.928223,93.087173" id="path4197" marker-end="none" marker-mid="none" marker-start="none" stroke-dashoffset="0" stroke-miterlimit="4" stroke-linecap="round" stroke-width="12.5" stroke="#ff0000" fill-rule="nonzero" fill="none"/>
  <path d="m366.396759,169.986588c22.793396,16.715134 35.298401,42.728989 33.466187,69.61879c-1.832184,26.889771 -17.768738,51.237976 -42.64975,65.161041" id="path4198" marker-end="none" marker-mid="none" marker-start="none" stroke-dashoffset="0" stroke-miterlimit="4" stroke-linecap="round" stroke-width="12.5" stroke="#ff0000" fill-rule="nonzero" fill="none"/>
  <title>Layer 1</title>
 </g>
</svg>